<svg xmlns="http://www.w3.org/2000/svg" width="307" height="50" viewBox="0 0 307 50">
  <g fill="#FFF" fill-rule="evenodd">
    <path d="M21.8897392,15.2285156 C21.9494768,15.2273438 22.0092144,15.2261719 22.0677807,15.2261719 C23.818913,15.2261719 25.4681399,15.8953125 26.7249727,17.1210938 C28.0251445,18.3890625 28.7408246,20.0871094 28.7408246,21.9023438 C28.7408246,25.5855469 25.7469155,28.5679688 22.0548961,28.5796875 C20.3892707,28.5855469 15.3935655,28.621875 15.3935655,28.621875 L15.3935655,22.1027344 C15.3935655,18.4042969 18.3078245,15.3222656 21.8897392,15.2285156 M42.5027331,11.8042969 C40.8675621,8.9390625 38.7064657,6.58945313 36.0791816,4.81992188 C33.5104638,3.09140625 30.5903483,1.83632813 27.3996564,1.09101563 C24.3026706,0.365625 21.181087,0 18.1204123,0 L0,0 L0.0937060753,18.046875 C0.113618616,22.0476563 1.69256598,25.8011719 4.53654537,28.6148438 C6.38958301,30.4476563 8.63618616,31.7378906 11.0819147,32.409375 C13.2512104,32.8265625 15.2108387,32.9273438 15.4181634,32.9367187 L22.0666094,32.8933594 C28.1247072,32.8933594 33.0524754,27.9632813 33.0524754,21.9023438 C33.0524754,18.9140625 31.8741215,16.1191406 29.734109,14.0320313 C27.5952678,11.9460938 24.7700297,10.8398438 21.7784632,10.9160156 C15.8808371,11.0671875 11.0819147,16.0863281 11.0819147,22.1027344 L11.0819147,27.8625 C9.78408558,27.3410156 8.59167578,26.5605469 7.56676558,25.5480469 C5.54271435,23.5441406 4.41941278,20.8722656 4.40418554,18.0234375 L4.33507731,4.3125 L18.1204123,4.3125 C20.8507731,4.3125 23.6432141,4.64179688 26.4192566,5.29101562 C29.098079,5.91679688 31.5391223,6.96328125 33.6721068,8.39882813 C35.7441824,9.79453125 37.4554896,11.6601563 38.7580041,13.9417969 C40.0394346,16.1871094 40.6883492,19.0664062 40.6883492,22.5 C40.6883492,25.6652344 40.040606,28.3957031 38.761518,30.61875 C37.4508043,32.8980469 35.7289552,34.7917969 33.6428237,36.2472656 C31.4992972,37.7425781 29.0465407,38.8652344 26.3548337,39.5824219 C23.5987037,40.3148437 20.8285179,40.6875 18.1204123,40.6875 L15.3947368,40.6875 L15.3947368,35.3789062 C14.6532875,35.3507812 12.1806185,35.1246094 11.0819147,34.846875 L11.0830861,45 L18.1204123,45 C21.2033422,45 24.347181,44.5792969 27.4640793,43.7496094 C30.6430579,42.9046875 33.5526316,41.5710937 36.1096361,39.7851562 C38.7205216,37.9640625 40.8699047,35.6039063 42.4992191,32.7703125 C44.158988,29.8851562 45,26.428125 45,22.5 C45,18.3070313 44.1601593,14.709375 42.5027331,11.8042969"/>
    <g transform="translate(65.88 5.263)">
      <path d="M7.02521585 25.3657059L13.3241393 25.3657059C20.2802158 25.3657059 23.036571 20.2648235 22.906194 15.2539412 22.7745 10.4614412 19.9746858 5.66761765 13.3241393 5.66761765L7.02521585 5.66761765 7.02521585 25.3657059zM28.6375164 15.2989412C28.7692104 23.0786471 24.0427131 30.9496765 13.3241393 30.9496765L1.2925765 30.9496765 1.2925765.172323529 13.3241393.172323529C23.825418.172323529 28.5058224 7.69129412 28.6375164 15.2989412zM49.2482842 17.5834853C48.8966612 14.7696618 46.709224 13.36275 43.6473388 13.36275 40.7606066 13.36275 38.3980164 14.7696618 37.6104863 17.5834853L49.2482842 17.5834853zM37.5235683 22.0239265C37.8725574 24.7067206 40.1916885 26.6417206 43.9541858 26.6417206 45.9230109 26.6417206 48.5042131 25.8926029 49.7289672 24.6193676L53.1411585 28.0049559C50.8668033 30.3780441 47.147765 31.5215735 43.8672678 31.5215735 36.4291913 31.5215735 32.0108579 26.9051029 32.0108579 19.9578971 32.0108579 13.36275 36.4739672 8.61392647 43.4721858 8.61392647 50.6916503 8.61392647 55.1982186 13.0993676 54.3672295 22.0239265L37.5235683 22.0239265zM72.5699727 15.0339706C71.0396885 13.5820588 69.2894754 13.0989706 67.2324153 13.0989706 64.6959891 13.0989706 63.296082 13.8904412 63.296082 15.2536765 63.296082 16.6605882 64.5642951 17.4520588 67.3206503 17.6267647 71.3899945 17.8914706 76.551082 18.8139706 76.551082 24.5739706 76.551082 28.4002941 73.4444208 31.6972059 67.2758743 31.6972059 63.865 31.6972059 60.4514918 31.1254412 57.3013716 27.8285294L59.9260328 24.0035294C61.4576339 25.7188235 64.9580601 26.9933824 67.3654262 27.0370588 69.3763934 27.0820588 71.2583005 26.0258824 71.2583005 24.4429412 71.2583005 22.9473529 70.0322295 22.3332353 66.9703443 22.1558824 62.901 21.8488235 58.0454426 20.3545588 58.0454426 15.4297059 58.0454426 10.4175 63.207847 8.65852941 67.1454973 8.65852941 70.5129126 8.65852941 73.0506557 9.31764706 75.5462568 11.5160294L72.5699727 15.0339706zM97.4272131 30.9506029L102.76477 30.9506029 102.76477 9.18648529 97.4272131 9.18648529 97.4272131 30.9506029zM103.245454 3.16177941C103.245454 7.33883824 96.9452131 7.33883824 96.9452131 3.16177941 96.9452131-1.01527941 103.245454-1.01527941 103.245454 3.16177941zM123.459954 30.9506029L123.459954 19.6053088C123.459954 16.3083971 121.666282 13.8029559 118.252774 13.8029559 114.972277 13.8029559 112.740063 16.5731029 112.740063 19.8700147L112.740063 30.9506029 107.447282 30.9506029 107.447282 9.23016176 112.215921 9.23016176 112.566227 12.1750147C114.753664 10.0216324 116.941102 8.92177941 119.652681 8.92177941 124.728167 8.92177941 128.796195 12.7481029 128.796195 19.5629559L128.796195 30.9506029 123.459954 30.9506029zM137.726364 20.1336618C137.726364 23.4318971 139.693872 26.5091029 143.588063 26.5091029 147.480938 26.5091029 149.449763 23.4318971 149.449763 20.1336618 149.449763 16.8804265 147.175408 13.7145441 143.588063 13.7145441 139.738648 13.7145441 137.726364 16.8804265 137.726364 20.1336618M154.832096 20.1336618C154.832096 26.37675 150.588916 31.4339559 143.588063 31.4339559 136.588528 31.4339559 132.38749 26.37675 132.38749 20.1336618 132.38749 13.93425 136.676763 8.83469118 143.544604 8.83469118 150.413763 8.83469118 154.832096 13.93425 154.832096 20.1336618"/>
      <polygon points="158.511 30.951 163.805 30.951 163.805 .217 158.511 .217"/>
      <path d="M172.819388 20.1336618C172.819388 23.4318971 174.786896 26.5091029 178.681087 26.5091029 182.573962 26.5091029 184.542787 23.4318971 184.542787 20.1336618 184.542787 16.8804265 182.268432 13.7145441 178.681087 13.7145441 174.830355 13.7145441 172.819388 16.8804265 172.819388 20.1336618M189.923803 20.1336618C189.923803 26.37675 185.68194 31.4339559 178.681087 31.4339559 171.681552 31.4339559 167.480514 26.37675 167.480514 20.1336618 167.480514 13.93425 171.76847 8.83469118 178.636311 8.83469118 185.50547 8.83469118 189.923803 13.93425 189.923803 20.1336618M197.803977 19.5629559C197.803977 23.3442794 200.34172 25.5863382 203.447064 25.5863382 206.508949 25.5863382 209.046692 23.3006029 209.046692 19.5629559 209.046692 15.8253088 206.508949 13.4495735 203.447064 13.4495735 200.34172 13.4495735 197.803977 15.7816324 197.803977 19.5629559M213.293823 9.17060294L214.472485 10.0653088 212.065119 13.1425147C213.728414 15.0338382 214.342108 17.1872206 214.342108 19.5629559 214.342108 22.2444265 213.334649 26.0244265 209.79208 27.6523676 213.378108 29.4550147 214.252556 32.0491324 214.252556 34.8192794 214.252556 40.7989853 209.702528 44.4929559 203.447064 44.4929559 197.190283 44.4929559 192.508561 40.6666324 192.508561 34.8192794L197.803977 34.8192794C197.803977 37.6331029 200.385179 39.4794265 203.447064 39.4794265 206.508949 39.4794265 208.916315 37.8091324 208.916315 34.8192794 208.916315 31.8188382 206.096747 30.4569265 203.419408 30.4661912 198.170086 30.4847206 193.465977 27.0448676 192.683714 21.8288382 191.470813 13.7460441 196.762277 8.57104412 203.447064 8.57104412 205.153818 8.57104412 206.902714 8.79075 208.390856 9.80192647 209.58137 8.28648529 211.760905 8.00589706 213.293823 9.17060294"/>
      <polygon points="93.443 9.317 87.492 9.317 87.492 3.163 82.155 3.733 82.155 9.317 78.131 9.317 78.131 13.935 82.155 13.935 87.45 13.935 93.443 13.935"/>
      <path d="M92.8308295,25.7185588 C92.0432995,26.1142941 91.0806164,26.3776765 90.2496273,26.3776765 C88.5863322,26.3776765 87.4498131,25.3651765 87.4498131,23.2991471 L87.4498131,13.9351765 L82.1557148,20.0670882 L82.1557148,23.2991471 C82.1557148,28.7070882 85.2176,31.3898824 89.8980044,31.2138529 C91.5178404,31.1701765 92.7860536,30.9054706 94.3176546,30.2913529 L92.8308295,25.7185588 Z"/>
      <polyline points="239.938 9.274 237.661 9.274 234.032 9.274 230.093 18.772 227.863 24.75 225.808 18.639 222.526 9.274 216.314 9.274 224.932 30.597 220.907 40.008 226.769 40.008 237.661 14.589 237.661 14.595"/>
    </g>
  </g>
</svg>
