<?xml version="1.0" encoding="UTF-8"?>
<svg width="50px" height="50px" viewBox="0 0 50 50" version="1.1" xmlns="http://www.w3.org/2000/svg" xmlns:xlink="http://www.w3.org/1999/xlink">
    <!-- Generator: sketchtool 50.2 (55047) - http://www.bohemiancoding.com/sketch -->
    <title>47C7E659-2385-4680-B355-F9C021947169</title>
    <desc>Created with sketchtool.</desc>
    <defs>
        <linearGradient x1="50%" y1="-2.48949813e-15%" x2="50%" y2="100%" id="linearGradient-1">
            <stop stop-color="#711BE0" offset="0%"></stop>
            <stop stop-color="#5FDFC1" offset="100%"></stop>
        </linearGradient>
    </defs>
    <g id="Footer" stroke="none" stroke-width="1" fill="none" fill-rule="evenodd">
        <g id="Footer-sm-Expanded" transform="translate(-238.000000, -1358.000000)">
            <g id="Social" transform="translate(16.000000, 1088.000000)">
                <g id="Instagram" transform="translate(205.000000, 270.000000)">
                    <g id="instagram-logo" transform="translate(17.000000, 0.000000)">
                        <circle id="Oval-3" stroke="url(#linearGradient-1)" cx="25" cy="25" r="24.5"></circle>
                        <g id="instagram" transform="translate(13.000000, 13.000000)" fill="#FFFFFF" fill-rule="nonzero">
                            <path d="M12.0053333,5.86666667 C8.61333333,5.86666667 5.87733333,8.60266667 5.87733333,11.9946667 C5.87733333,15.3866667 8.61333333,18.1226667 12.0053333,18.1226667 C15.3973333,18.1226667 18.1333333,15.3866667 18.1333333,11.9946667 C18.1333333,8.60266667 15.3973333,5.86666667 12.0053333,5.86666667 Z M12.0053333,15.9786667 C9.81333333,15.9786667 8.02133333,14.192 8.02133333,11.9946667 C8.02133333,9.79733333 9.808,8.01066667 12.0053333,8.01066667 C14.2026667,8.01066667 15.9893333,9.79733333 15.9893333,11.9946667 C15.9893333,14.192 14.1973333,15.9786667 12.0053333,15.9786667 Z M19.8133333,5.616 C19.8133333,6.41066667 19.1733333,7.04533333 18.384,7.04533333 C17.5893333,7.04533333 16.9546667,6.40533333 16.9546667,5.616 C16.9546667,4.82666667 17.5946667,4.18666667 18.384,4.18666667 C19.1733333,4.18666667 19.8133333,4.82666667 19.8133333,5.616 Z M23.872,7.06666667 C23.7813333,5.152 23.344,3.456 21.9413333,2.05866667 C20.544,0.661333333 18.848,0.224 16.9333333,0.128 C14.96,0.016 9.04533333,0.016 7.072,0.128 C5.16266667,0.218666667 3.46666667,0.656 2.064,2.05333333 C0.661333333,3.45066667 0.229333333,5.14666667 0.133333333,7.06133333 C0.0213333333,9.03466667 0.0213333333,14.9493333 0.133333333,16.9226667 C0.224,18.8373333 0.661333333,20.5333333 2.064,21.9306667 C3.46666667,23.328 5.15733333,23.7653333 7.072,23.8613333 C9.04533333,23.9733333 14.96,23.9733333 16.9333333,23.8613333 C18.848,23.7706667 20.544,23.3333333 21.9413333,21.9306667 C23.3386667,20.5333333 23.776,18.8373333 23.872,16.9226667 C23.984,14.9493333 23.984,9.04 23.872,7.06666667 Z M21.3226667,19.04 C20.9066667,20.0853333 20.1013333,20.8906667 19.0506667,21.312 C17.4773333,21.936 13.744,21.792 12.0053333,21.792 C10.2666667,21.792 6.528,21.9306667 4.96,21.312 C3.91466667,20.896 3.10933333,20.0906667 2.688,19.04 C2.064,17.4666667 2.208,13.7333333 2.208,11.9946667 C2.208,10.256 2.06933333,6.51733333 2.688,4.94933333 C3.104,3.904 3.90933333,3.09866667 4.96,2.67733333 C6.53333333,2.05333333 10.2666667,2.19733333 12.0053333,2.19733333 C13.744,2.19733333 17.4826667,2.05866667 19.0506667,2.67733333 C20.096,3.09333333 20.9013333,3.89866667 21.3226667,4.94933333 C21.9466667,6.52266667 21.8026667,10.256 21.8026667,11.9946667 C21.8026667,13.7333333 21.9466667,17.472 21.3226667,19.04 Z" id="Shape"></path>
                        </g>
                    </g>
                </g>
            </g>
        </g>
    </g>
</svg>