<?xml version="1.0" encoding="UTF-8"?>
<svg width="191px" height="36px" viewBox="0 0 191 36" version="1.1" xmlns="http://www.w3.org/2000/svg" xmlns:xlink="http://www.w3.org/1999/xlink">
    <!-- Generator: sketchtool 50.2 (55047) - http://www.bohemiancoding.com/sketch -->
    <title>10387035-074B-417F-9278-088BC19E5F1D</title>
    <desc>Created with sketchtool.</desc>
    <defs></defs>
    <g id="Header-Final" stroke="none" stroke-width="1" fill="none" fill-rule="evenodd">
        <g id="Menu---Mega-Menu---About" transform="translate(-48.000000, -37.000000)" fill="#FFFFFF">
            <g id="Header-final">
                <g id="Header-Final">
                    <g id="Group-8" transform="translate(48.000000, 36.000000)">
                        <g id="topheader" transform="translate(0.000000, 1.000000)">
                            <g id="logo-horiz">
                                <g id="Logomark-wht">
                                    <path d="M17.5117913,12.1828125 C17.5595814,12.181875 17.6073715,12.1809375 17.6542246,12.1809375 C19.0551304,12.1809375 20.3745119,12.71625 21.3799781,13.696875 C22.4201156,14.71125 22.9926597,16.0696875 22.9926597,17.521875 C22.9926597,20.4684375 20.5975324,22.854375 17.6439169,22.86375 C16.3114165,22.8684375 12.3148524,22.8975 12.3148524,22.8975 L12.3148524,17.6821875 C12.3148524,14.7234375 14.6462596,12.2578125 17.5117913,12.1828125 M34.0021865,9.4434375 C32.6940497,7.15125 30.9651726,5.2715625 28.8633453,3.8559375 C26.8083711,2.473125 24.4722786,1.4690625 21.9197251,0.8728125 C19.4421365,0.2925 16.9448696,0 14.4963298,0 L0,0 L0.0749648602,14.4375 C0.090894893,17.638125 1.35405279,20.6409375 3.6292363,22.891875 C5.11166641,24.358125 6.90894893,25.3903125 8.86553178,25.9275 C10.6009683,26.26125 12.1686709,26.341875 12.3345307,26.349375 L17.6532875,26.3146875 C22.4997657,26.3146875 26.4419803,22.370625 26.4419803,17.521875 C26.4419803,15.13125 25.4992972,12.8953125 23.7872872,11.225625 C22.0762143,9.556875 19.8160237,8.671875 17.4227706,8.7328125 C12.7046697,8.85375 8.86553178,12.8690625 8.86553178,17.6821875 L8.86553178,22.29 C7.82726847,21.8728125 6.87334062,21.2484375 6.05341246,20.4384375 C4.43417148,18.8353125 3.53553022,16.6978125 3.52334843,14.41875 L3.46806185,3.45 L14.4963298,3.45 C16.6806185,3.45 18.9145713,3.7134375 21.1354053,4.2328125 C23.2784632,4.7334375 25.2312978,5.570625 26.9376855,6.7190625 C28.5953459,7.835625 29.9643917,9.328125 31.0064032,11.1534375 C32.0315477,12.9496875 32.5506794,15.253125 32.5506794,18 C32.5506794,20.5321875 32.0324848,22.7165625 31.0092144,24.495 C29.9606434,26.3184375 28.5831641,27.8334375 26.9142589,28.9978125 C25.1994378,30.1940625 23.2372325,31.0921875 21.0838669,31.6659375 C18.878963,32.251875 16.6628143,32.55 14.4963298,32.55 L12.3157895,32.55 L12.3157895,28.303125 C11.72263,28.280625 9.74449477,28.0996875 8.86553178,27.8775 L8.86646884,36 L14.4963298,36 C16.9626737,36 19.4777448,35.6634375 21.9712635,34.9996875 C24.5144464,34.32375 26.8421053,33.256875 28.8877089,31.828125 C30.9764173,30.37125 32.6959238,28.483125 33.9993753,26.21625 C35.3271904,23.908125 36,21.1425 36,18 C36,14.645625 35.3281274,11.7675 34.0021865,9.4434375" id="Logomark"></path>
                                </g>
                                <g id="Wordmark-wht" transform="translate(52.000000, 10.000000)">
                                    <g id="Wordmark">
                                        <path d="M4.05188798,14.6557412 L7.68487705,14.6557412 C11.696888,14.6557412 13.286653,11.7085647 13.2114563,8.81338824 C13.1355,6.04438824 11.5206694,3.27462353 7.68487705,3.27462353 L4.05188798,3.27462353 L4.05188798,14.6557412 Z M16.5170738,8.83938824 C16.5930301,13.3343294 13.866959,17.8820353 7.68487705,17.8820353 L0.745510929,17.8820353 L0.745510929,0.0995647059 L7.68487705,0.0995647059 C13.7416311,0.0995647059 16.4411175,4.44385882 16.5170738,8.83938824 Z" id="Fill-3"></path>
                                        <path d="M28.404612,10.1593471 C28.2018087,8.53358235 26.9401749,7.7207 25.1741913,7.7207 C23.5092295,7.7207 22.1465738,8.53358235 21.6923552,10.1593471 L28.404612,10.1593471 Z M21.642224,12.7249353 C21.8435082,14.2749941 23.1810984,15.3929941 25.3511694,15.3929941 C26.4867158,15.3929941 27.975459,14.9601706 28.6818525,14.2245235 L30.6498798,16.1806412 C29.3381148,17.5517588 27.1931093,18.2124647 25.3010383,18.2124647 C21.0110273,18.2124647 18.462694,15.5451706 18.462694,11.5312294 C18.462694,7.7207 21.0368525,4.97693529 25.0731694,4.97693529 C29.2370929,4.97693529 31.8363169,7.56852353 31.3570328,12.7249353 L21.642224,12.7249353 Z" id="Fill-5"></path>
                                        <path d="M41.8557104,8.68629412 C40.9730984,7.84741176 39.9636393,7.56829412 38.7772022,7.56829412 C37.3142842,7.56829412 36.5068689,8.02558824 36.5068689,8.81323529 C36.5068689,9.62611765 37.2383279,10.0834118 38.8280929,10.1843529 C41.1751421,10.3372941 44.1518689,10.8702941 44.1518689,14.1982941 C44.1518689,16.4090588 42.3600601,18.3139412 38.8022678,18.3139412 C36.835,18.3139412 34.8662131,17.9835882 33.0493388,16.0787059 L34.5631475,13.8687059 C35.4465191,14.8597647 37.4654372,15.5961765 38.853918,15.6214118 C40.0137705,15.6474118 41.0991858,15.0371765 41.0991858,14.1225882 C41.0991858,13.2584706 40.3920328,12.9036471 38.6260492,12.8011765 C36.279,12.6237647 33.4784918,11.7604118 33.4784918,8.91494118 C33.4784918,6.019 36.4559781,5.00270588 38.727071,5.00270588 C40.6692732,5.00270588 42.1329508,5.38352941 43.5723224,6.65370588 L41.8557104,8.68629412 Z" id="Fill-7"></path>
                                        <path d="M56.192459,17.8825706 L59.2709672,17.8825706 L59.2709672,5.30774706 L56.192459,5.30774706 L56.192459,17.8825706 Z M59.5482077,1.82680588 C59.5482077,4.24021765 55.914459,4.24021765 55.914459,1.82680588 C55.914459,-0.586605882 59.5482077,-0.586605882 59.5482077,1.82680588 Z" id="Fill-9"></path>
                                        <path d="M71.2071934,17.8825706 L71.2071934,11.3275118 C71.2071934,9.42262941 70.1726689,7.97504118 68.203882,7.97504118 C66.3118109,7.97504118 65.0243519,9.57557059 65.0243519,11.4804529 L65.0243519,17.8825706 L61.9716689,17.8825706 L61.9716689,5.33298235 L64.7220459,5.33298235 L64.9240896,7.03445294 C66.1857235,5.79027647 67.4473574,5.15480588 69.0112973,5.15480588 C71.9386525,5.15480588 74.2849421,7.36557059 74.2849421,11.3030412 L74.2849421,17.8825706 L71.2071934,17.8825706 Z" id="Fill-11"></path>
                                        <path d="M79.4355377,11.6327824 C79.4355377,13.5384294 80.5703246,15.3163706 82.8163519,15.3163706 C85.0616197,15.3163706 86.1971661,13.5384294 86.1971661,11.6327824 C86.1971661,9.75313529 84.8854011,7.92395882 82.8163519,7.92395882 C80.5961497,7.92395882 79.4355377,9.75313529 79.4355377,11.6327824 M89.3014995,11.6327824 C89.3014995,15.2399 86.854188,18.1618412 82.8163519,18.1618412 C78.7792754,18.1618412 76.3562699,15.2399 76.3562699,11.6327824 C76.3562699,8.0509 78.8301661,5.10448824 82.7912863,5.10448824 C86.7531661,5.10448824 89.3014995,8.0509 89.3014995,11.6327824" id="Fill-12"></path>
                                        <polygon id="Fill-13" points="91.4232623 17.8825706 94.4767049 17.8825706 94.4767049 0.125335294 91.4232623 0.125335294"></polygon>
                                        <path d="M99.6759126,11.6327824 C99.6759126,13.5384294 100.810699,15.3163706 103.056727,15.3163706 C105.301995,15.3163706 106.437541,13.5384294 106.437541,11.6327824 C106.437541,9.75313529 105.125776,7.92395882 103.056727,7.92395882 C100.835765,7.92395882 99.6759126,9.75313529 99.6759126,11.6327824 M109.541115,11.6327824 C109.541115,15.2399 107.094563,18.1618412 103.056727,18.1618412 C99.0196503,18.1618412 96.5966448,15.2399 96.5966448,11.6327824 C96.5966448,8.0509 99.0697814,5.10448824 103.030902,5.10448824 C106.992781,5.10448824 109.541115,8.0509 109.541115,11.6327824" id="Fill-14"></path>
                                        <path d="M114.086111,11.3030412 C114.086111,13.4878059 115.549789,14.7832176 117.340838,14.7832176 C119.106821,14.7832176 120.570499,13.4625706 120.570499,11.3030412 C120.570499,9.14351176 119.106821,7.77086471 117.340838,7.77086471 C115.549789,7.77086471 114.086111,9.11827647 114.086111,11.3030412 M123.020089,5.29857059 L123.699898,5.81551176 L122.311417,7.59345294 C123.270745,8.68621765 123.624701,9.93039412 123.624701,11.3030412 C123.624701,12.8523353 123.043636,15.0363353 121.000411,15.9769235 C123.068701,17.0184529 123.573051,18.5172765 123.573051,20.1178059 C123.573051,23.5727471 120.948761,25.7070412 117.340838,25.7070412 C113.732155,25.7070412 111.031909,23.4962765 111.031909,20.1178059 L114.086111,20.1178059 C114.086111,21.7435706 115.574854,22.8103353 117.340838,22.8103353 C119.106821,22.8103353 120.495302,21.8452765 120.495302,20.1178059 C120.495302,18.3842176 118.869078,17.5973353 117.324887,17.6026882 C114.297269,17.6133941 111.584111,15.6259235 111.132931,12.6122176 C110.433373,7.94215882 113.485297,4.95215882 117.340838,4.95215882 C118.325231,4.95215882 119.333931,5.0791 120.192237,5.66333529 C120.878881,4.78774706 122.135958,4.62562941 123.020089,5.29857059" id="Fill-15"></path>
                                        <polygon id="Fill-16" points="53.8944776 5.3833 50.4620131 5.3833 50.4620131 1.82741765 47.3842645 2.15700588 47.3842645 5.3833 45.0630404 5.3833 45.0630404 8.05135882 47.3842645 8.05135882 50.4377071 8.05135882 53.8944776 8.05135882"></polygon>
                                        <path d="M53.5414328,14.8596118 C53.0872142,15.0882588 52.5319738,15.2404353 52.0526896,15.2404353 C51.0933617,15.2404353 50.437859,14.6554353 50.437859,13.4617294 L50.437859,8.05143529 L47.3844164,11.5943176 L47.3844164,13.4617294 C47.3844164,16.5863176 49.1504,18.1363765 51.8498863,18.0346706 C52.7841486,18.0094353 53.5156077,17.8564941 54.3989792,17.5016706 L53.5414328,14.8596118 Z" id="Fill-17"></path>
                                        <polyline id="Fill-18" points="138.387716 5.35829412 137.074432 5.35829412 134.981077 5.35829412 132.709225 10.8458235 131.423285 14.3 130.237607 10.7693529 128.344777 5.35829412 124.761919 5.35829412 129.732498 17.6784706 127.411274 23.1155294 130.792088 23.1155294 137.074432 8.42935294 137.074432 8.43241176"></polyline>
                                    </g>
                                </g>
                            </g>
                        </g>
                    </g>
                </g>
            </g>
        </g>
    </g>
</svg>