<?xml version="1.0" encoding="UTF-8"?>
<svg width="229px" height="39px" viewBox="0 0 229 39" version="1.1" xmlns="http://www.w3.org/2000/svg" xmlns:xlink="http://www.w3.org/1999/xlink">
    <!-- Generator: Sketch 48.2 (47327) - http://www.bohemiancoding.com/sketch -->
    <title>Logo Horiz</title>
    <desc>Created with Sketch.</desc>
    <defs></defs>
    <g id="Stuff" stroke="none" stroke-width="1" fill="none" fill-rule="evenodd" transform="translate(-532.000000, -99.000000)">
        <g id="Logo-Horiz" transform="translate(532.000000, 99.000000)" fill="#FFFFFF">
            <path d="M16.5389141,11.5062896 C16.5840491,11.5054042 16.6291842,11.5045188 16.6734343,11.5045188 C17.9965121,11.5045188 19.2425946,12.0100917 20.1922016,12.9362375 C21.1745536,13.8942583 21.7152897,15.1772271 21.7152897,16.5487375 C21.7152897,19.3316021 19.4532251,21.5849875 16.6636993,21.5938417 C15.4052267,21.5982687 11.6306939,21.6257167 11.6306939,21.6257167 L11.6306939,16.7001438 C11.6306939,13.9057688 13.8325785,11.5771229 16.5389141,11.5062896 M32.1131761,8.91910208 C30.8777136,6.75425833 29.2448852,4.97899792 27.2598261,3.64201875 C25.3190171,2.33602917 23.1127076,1.38774792 20.7019626,0.824622917 C18.3620178,0.27655 16.0034879,0.0003 13.6909782,0.0003 L0,0.0003 L0.0708001458,13.6357167 C0.0858451767,16.6585292 1.27882763,19.4945187 3.42761206,21.6204042 C4.82768494,23.0051958 6.52511843,23.9800396 8.37300224,24.4873833 C10.0120256,24.8025917 11.4926337,24.8787375 11.649279,24.8858208 L16.6725493,24.8530604 C21.2497787,24.8530604 24.9729814,21.1281125 24.9729814,16.5487375 C24.9729814,14.290925 24.0826696,12.1792063 22.4657713,10.6022792 C20.8497579,9.0262375 18.7151335,8.19040417 16.4548389,8.24795625 C11.9988547,8.362175 8.37300224,12.1544146 8.37300224,16.7001437 L8.37300224,21.0519667 C7.39242022,20.6579562 6.49148836,20.0682687 5.71711177,19.3032687 C4.18782862,17.7892062 3.33911187,15.7704562 3.32760685,13.6180083 L3.27539174,3.25863333 L13.6909782,3.25863333 C15.7539174,3.25863333 17.8637618,3.50743542 19.9612161,3.99795625 C21.9852153,4.47076875 23.8295591,5.26144583 25.4411474,6.34608125 C27.0067156,7.4006125 28.2997033,8.81019583 29.2838253,10.5341021 C30.2520173,12.2305604 30.7423083,14.4060292 30.7423083,17.0003 C30.7423083,19.3918104 30.2529023,21.4548312 29.2864803,23.1344667 C28.2961633,24.8566021 26.9952106,26.2874354 25.4190223,27.3871229 C23.799469,28.5169146 21.9462752,29.3651437 19.912541,29.9070187 C17.8301317,30.4604042 15.7371024,30.7419667 13.6909782,30.7419667 L11.6315789,30.7419667 L11.6315789,26.7310292 C11.0713728,26.7097792 9.20313395,26.5388937 8.37300224,26.32905 L8.37388724,34.0003 L13.6909782,34.0003 C16.020303,34.0003 18.3956479,33.6824354 20.7506377,33.0555604 C23.1525327,32.417175 25.3508772,31.4095708 27.2828362,30.0601958 C29.2555052,28.6842583 30.8794836,26.9010292 32.1105211,24.7600917 C33.3645687,22.5801958 34,19.9682167 34,17.0003 C34,13.8322792 33.3654537,11.11405 32.1131761,8.91910208" id="Logomark"></path>
            <g id="Wordmark" transform="translate(46.000000, 5.000000)">
                <path d="M5.3345,19.1652 L10.1175,19.1652 C15.3995,19.1652 17.4925,15.3112 17.3935,11.5252 C17.2935,7.9042 15.1675,4.2822 10.1175,4.2822 L5.3345,4.2822 L5.3345,19.1652 Z M21.7455,11.5592 C21.8455,17.4372 18.2565,23.3842 10.1175,23.3842 L0.9815,23.3842 L0.9815,0.1302 L10.1175,0.1302 C18.0915,0.1302 21.6455,5.8112 21.7455,11.5592 Z" id="Fill-3"></path>
                <path d="M37.396,13.2853 C37.129,11.1593 35.468,10.0963 33.143,10.0963 C30.951,10.0963 29.157,11.1593 28.559,13.2853 L37.396,13.2853 Z M28.493,16.6403 C28.758,18.6673 30.519,20.1293 33.376,20.1293 C34.871,20.1293 36.831,19.5633 37.761,18.6013 L40.352,21.1593 C38.625,22.9523 35.801,23.8163 33.31,23.8163 C27.662,23.8163 24.307,20.3283 24.307,15.0793 C24.307,10.0963 27.696,6.5083 33.01,6.5083 C38.492,6.5083 41.914,9.8973 41.283,16.6403 L28.493,16.6403 Z" id="Fill-5"></path>
                <path d="M55.105,11.359 C53.943,10.262 52.614,9.897 51.052,9.897 C49.126,9.897 48.063,10.495 48.063,11.525 C48.063,12.588 49.026,13.186 51.119,13.318 C54.209,13.518 58.128,14.215 58.128,18.567 C58.128,21.458 55.769,23.949 51.085,23.949 C48.495,23.949 45.903,23.517 43.511,21.026 L45.504,18.136 C46.667,19.432 49.325,20.395 51.153,20.428 C52.68,20.462 54.109,19.664 54.109,18.468 C54.109,17.338 53.178,16.874 50.853,16.74 C47.763,16.508 44.076,15.379 44.076,11.658 C44.076,7.871 47.996,6.542 50.986,6.542 C53.543,6.542 55.47,7.04 57.365,8.701 L55.105,11.359 Z" id="Fill-7"></path>
                <path d="M73.98,23.3849 L78.033,23.3849 L78.033,6.9409 L73.98,6.9409 L73.98,23.3849 Z M78.398,2.3889 C78.398,5.5449 73.614,5.5449 73.614,2.3889 C73.614,-0.7671 78.398,-0.7671 78.398,2.3889 Z" id="Fill-9"></path>
                <path d="M93.7476,23.3849 L93.7476,14.8129 C93.7476,12.3219 92.3856,10.4289 89.7936,10.4289 C87.3026,10.4289 85.6076,12.5219 85.6076,15.0129 L85.6076,23.3849 L81.5886,23.3849 L81.5886,6.9739 L85.2096,6.9739 L85.4756,9.1989 C87.1366,7.5719 88.7976,6.7409 90.8566,6.7409 C94.7106,6.7409 97.7996,9.6319 97.7996,14.7809 L97.7996,23.3849 L93.7476,23.3849 Z" id="Fill-11"></path>
                <path d="M104.5806,15.2121 C104.5806,17.7041 106.0746,20.0291 109.0316,20.0291 C111.9876,20.0291 113.4826,17.7041 113.4826,15.2121 C113.4826,12.7541 111.7556,10.3621 109.0316,10.3621 C106.1086,10.3621 104.5806,12.7541 104.5806,15.2121 M117.5696,15.2121 C117.5696,19.9291 114.3476,23.7501 109.0316,23.7501 C103.7166,23.7501 100.5266,19.9291 100.5266,15.2121 C100.5266,10.5281 103.7836,6.6751 108.9986,6.6751 C114.2146,6.6751 117.5696,10.5281 117.5696,15.2121" id="Fill-12"></path>
                <polygon id="Fill-13" points="120.363 23.3849 124.383 23.3849 124.383 0.1639 120.363 0.1639"></polygon>
                <path d="M131.228,15.2121 C131.228,17.7041 132.722,20.0291 135.679,20.0291 C138.635,20.0291 140.13,17.7041 140.13,15.2121 C140.13,12.7541 138.403,10.3621 135.679,10.3621 C132.755,10.3621 131.228,12.7541 131.228,15.2121 M144.216,15.2121 C144.216,19.9291 140.995,23.7501 135.679,23.7501 C130.364,23.7501 127.174,19.9291 127.174,15.2121 C127.174,10.5281 130.43,6.6751 135.645,6.6751 C140.861,6.6751 144.216,10.5281 144.216,15.2121" id="Fill-14"></path>
                <path d="M150.1997,14.7809 C150.1997,17.6379 152.1267,19.3319 154.4847,19.3319 C156.8097,19.3319 158.7367,17.6049 158.7367,14.7809 C158.7367,11.9569 156.8097,10.1619 154.4847,10.1619 C152.1267,10.1619 150.1997,11.9239 150.1997,14.7809 M161.9617,6.9289 L162.8567,7.6049 L161.0287,9.9299 C162.2917,11.3589 162.7577,12.9859 162.7577,14.7809 C162.7577,16.8069 161.9927,19.6629 159.3027,20.8929 C162.0257,22.2549 162.6897,24.2149 162.6897,26.3079 C162.6897,30.8259 159.2347,33.6169 154.4847,33.6169 C149.7337,33.6169 146.1787,30.7259 146.1787,26.3079 L150.1997,26.3079 C150.1997,28.4339 152.1597,29.8289 154.4847,29.8289 C156.8097,29.8289 158.6377,28.5669 158.6377,26.3079 C158.6377,24.0409 156.4967,23.0119 154.4637,23.0189 C150.4777,23.0329 146.9057,20.4339 146.3117,16.4929 C145.3907,10.3859 149.4087,6.4759 154.4847,6.4759 C155.7807,6.4759 157.1087,6.6419 158.2387,7.4059 C159.1427,6.2609 160.7977,6.0489 161.9617,6.9289" id="Fill-15"></path>
                <polygon id="Fill-16" points="70.9546 7.0397 66.4356 7.0397 66.4356 2.3897 62.3836 2.8207 62.3836 7.0397 59.3276 7.0397 59.3276 10.5287 62.3836 10.5287 66.4036 10.5287 70.9546 10.5287"></polygon>
                <path d="M70.4898,19.4318 C69.8918,19.7308 69.1608,19.9298 68.5298,19.9298 C67.2668,19.9298 66.4038,19.1648 66.4038,17.6038 L66.4038,10.5288 L62.3838,15.1618 L62.3838,17.6038 C62.3838,21.6898 64.7088,23.7168 68.2628,23.5838 C69.4928,23.5508 70.4558,23.3508 71.6188,22.8868 L70.4898,19.4318 Z" id="Fill-17"></path>
                <polyline id="Fill-18" points="182.1939 7.007 180.4649 7.007 177.7089 7.007 174.7179 14.183 173.0249 18.7 171.4639 14.083 168.9719 7.007 164.2549 7.007 170.7989 23.118 167.7429 30.228 172.1939 30.228 180.4649 11.023 180.4649 11.027"></polyline>
            </g>
        </g>
    </g>
</svg>