<?xml version="1.0" encoding="UTF-8"?>
<svg width="36px" height="36px" viewBox="0 0 36 36" version="1.1" xmlns="http://www.w3.org/2000/svg" xmlns:xlink="http://www.w3.org/1999/xlink">
    <!-- Generator: sketchtool 50.2 (55047) - http://www.bohemiancoding.com/sketch -->
    <title>A14E6C84-C4E6-4492-9FBB-19F1F895AC12</title>
    <desc>Created with sketchtool.</desc>
    <defs></defs>
    <g id="Header" stroke="none" stroke-width="1" fill="none" fill-rule="evenodd">
        <g id="header-xs" transform="translate(-16.000000, -20.000000)" fill="#FFFFFF">
            <g id="top-header">
                <g id="Group-8" transform="translate(16.000000, 20.000000)">
                    <g id="topheader">
                        <g id="logo">
                            <g id="Logomark-wht">
                                <path d="M17.5117913,12.1828125 C17.5595814,12.181875 17.6073715,12.1809375 17.6542246,12.1809375 C19.0551304,12.1809375 20.3745119,12.71625 21.3799781,13.696875 C22.4201156,14.71125 22.9926597,16.0696875 22.9926597,17.521875 C22.9926597,20.4684375 20.5975324,22.854375 17.6439169,22.86375 C16.3114165,22.8684375 12.3148524,22.8975 12.3148524,22.8975 L12.3148524,17.6821875 C12.3148524,14.7234375 14.6462596,12.2578125 17.5117913,12.1828125 M34.0021865,9.4434375 C32.6940497,7.15125 30.9651726,5.2715625 28.8633453,3.8559375 C26.8083711,2.473125 24.4722786,1.4690625 21.9197251,0.8728125 C19.4421365,0.2925 16.9448696,0 14.4963298,0 L0,0 L0.0749648602,14.4375 C0.090894893,17.638125 1.35405279,20.6409375 3.6292363,22.891875 C5.11166641,24.358125 6.90894893,25.3903125 8.86553178,25.9275 C10.6009683,26.26125 12.1686709,26.341875 12.3345307,26.349375 L17.6532875,26.3146875 C22.4997657,26.3146875 26.4419803,22.370625 26.4419803,17.521875 C26.4419803,15.13125 25.4992972,12.8953125 23.7872872,11.225625 C22.0762143,9.556875 19.8160237,8.671875 17.4227706,8.7328125 C12.7046697,8.85375 8.86553178,12.8690625 8.86553178,17.6821875 L8.86553178,22.29 C7.82726847,21.8728125 6.87334062,21.2484375 6.05341246,20.4384375 C4.43417148,18.8353125 3.53553022,16.6978125 3.52334843,14.41875 L3.46806185,3.45 L14.4963298,3.45 C16.6806185,3.45 18.9145713,3.7134375 21.1354053,4.2328125 C23.2784632,4.7334375 25.2312978,5.570625 26.9376855,6.7190625 C28.5953459,7.835625 29.9643917,9.328125 31.0064032,11.1534375 C32.0315477,12.9496875 32.5506794,15.253125 32.5506794,18 C32.5506794,20.5321875 32.0324848,22.7165625 31.0092144,24.495 C29.9606434,26.3184375 28.5831641,27.8334375 26.9142589,28.9978125 C25.1994378,30.1940625 23.2372325,31.0921875 21.0838669,31.6659375 C18.878963,32.251875 16.6628143,32.55 14.4963298,32.55 L12.3157895,32.55 L12.3157895,28.303125 C11.72263,28.280625 9.74449477,28.0996875 8.86553178,27.8775 L8.86646884,36 L14.4963298,36 C16.9626737,36 19.4777448,35.6634375 21.9712635,34.9996875 C24.5144464,34.32375 26.8421053,33.256875 28.8877089,31.828125 C30.9764173,30.37125 32.6959238,28.483125 33.9993753,26.21625 C35.3271904,23.908125 36,21.1425 36,18 C36,14.645625 35.3281274,11.7675 34.0021865,9.4434375" id="Logomark"></path>
                            </g>
                        </g>
                    </g>
                </g>
            </g>
        </g>
    </g>
</svg>