<?xml version="1.0" encoding="UTF-8"?>
<svg width="50px" height="50px" viewBox="0 0 50 50" version="1.1" xmlns="http://www.w3.org/2000/svg" xmlns:xlink="http://www.w3.org/1999/xlink">
    <!-- Generator: sketchtool 50.2 (55047) - http://www.bohemiancoding.com/sketch -->
    <title>8E19F4D5-FBDC-479D-B935-DDC6A6B45D3D</title>
    <desc>Created with sketchtool.</desc>
    <defs></defs>
    <g id="Footer" stroke="none" stroke-width="1" fill="none" fill-rule="evenodd">
        <g id="Footer-lg" transform="translate(-952.000000, -1029.000000)">
            <g id="Group-2" transform="translate(0.000000, 247.000000)">
                <g id="Main-footer" transform="translate(135.000000, 578.000000)">
                    <g id="Social" transform="translate(602.000000, 204.000000)">
                        <g id="twitter" transform="translate(215.000000, 0.000000)">
                            <g id="twitter-icon">
                                <circle id="Oval-3" stroke="#5FDFC1" cx="25" cy="25" r="24.5"></circle>
                                <path d="M34.5303621,19.8572557 C34.5455947,20.0704174 34.5455947,20.283626 34.5455947,20.4967876 C34.5455947,26.9985005 29.5969906,34.4899998 20.5523825,34.4899998 C17.7659074,34.4899998 15.1774083,33.6829569 13,32.2821733 C13.3959052,32.327824 13.776531,32.3430566 14.1876687,32.3430566 C16.4868435,32.3430566 18.6033685,31.5665256 20.2935232,30.241811 C18.1313475,30.1961134 16.3193794,28.7800504 15.69508,26.8310364 C15.9996368,26.8766871 16.3041469,26.9071522 16.6239363,26.9071522 C17.0654922,26.9071522 17.507095,26.8462221 17.9181858,26.7396881 C15.6646618,26.2828528 13.9744601,24.3034205 13.9744601,21.9128506 L13.9744601,21.8519673 C14.6291778,22.2174075 15.39057,22.4458017 16.1975191,22.4762199 C14.8728045,21.5930612 14.0049252,20.0856499 14.0049252,18.3802626 C14.0049252,17.4666857 14.2485051,16.6292246 14.6748754,15.8983444 C17.0959104,18.8827487 20.7350792,20.8317158 24.815757,21.0449244 C24.7396412,20.6794843 24.6939436,20.2988585 24.6939436,19.9181858 C24.6939436,17.2078265 26.8865844,15 29.6121294,15 C31.0281924,15 32.3072094,15.5938344 33.2056006,16.5531088 C34.3171067,16.3399472 35.382962,15.9288094 36.3270509,15.3654401 C35.9615639,16.5074581 35.1850329,17.4667326 34.1648751,18.0757526 C35.1546147,17.9692186 36.1138892,17.69508 36.997001,17.3144542 C36.3271446,18.2889143 35.4896366,19.1567936 34.5303621,19.8572557 Z" id="Shape" fill="#FFFFFF" fill-rule="nonzero"></path>
                            </g>
                        </g>
                    </g>
                </g>
            </g>
        </g>
    </g>
</svg>